<svg width="256" height="144" viewBox="0 0 256 144" fill="none" xmlns="http://www.w3.org/2000/svg">
<g clip-path="url(#clip0_6407_309)">
<path opacity="0.1" d="M-308.435 -93.6939C-190.954 -134.805 -235.968 130.774 -155.196 179.665C-57.1787 238.992 -28.4582 -58.2117 20.6773 11.9305C84.5851 103.134 88.0087 93.5207 199.467 37.7991C310.925 -17.9226 391 113.444 391 113.444M-308.625 -81.6768C-187.784 -117.412 -228.107 123.627 -148.983 173.909C-49.5705 237.094 -20.85 -56.251 28.7926 13.3853C92.4468 103.008 91.686 103.514 202.7 46.7171C314.159 -10.4593 390.366 115.974 390.366 115.974M-308.879 -69.7229C-184.741 -100.082 -220.372 116.543 -142.833 168.154C-41.9624 235.26 -13.1785 -54.2903 36.8446 14.84C100.245 102.945 95.3633 113.57 205.934 55.635C317.392 -2.93278 389.669 118.504 389.669 118.504M-309.069 -57.7057C-181.634 -82.6255 -212.637 109.586 -136.62 162.398C-34.3544 233.426 -5.38029 -52.3929 44.9598 16.2314C108.297 102.628 99.1039 123.5 209.231 64.553C320.689 4.5305 389.098 121.034 389.098 121.034M-309.323 -45.7518C-178.527 -65.2955 -204.965 102.692 -130.47 156.642C-26.8097 231.718 2.35452 -50.4954 53.075 17.6861C116.159 102.502 102.844 133.557 212.464 73.471C323.922 11.9938 388.464 123.627 388.464 123.627M-309.513 -33.7346C-175.421 -47.9022 -197.294 95.861 -124.32 150.887C-19.2016 230.074 10.0261 -48.5347 61.127 19.1409C124.02 102.376 106.522 143.55 215.698 82.3891C327.156 19.5203 387.767 126.157 387.767 126.157M-309.703 -21.7807C-172.314 -30.5722 -189.622 89.0301 -118.107 145.068C-11.7204 228.492 17.6974 -46.574 69.2421 20.5956C131.945 102.249 110.262 153.543 218.994 91.3703C330.453 27.0469 387.196 128.75 387.196 128.75M-309.957 -9.76358C-169.271 -13.179 -182.014 82.3258 -111.957 139.376C-4.23915 226.974 25.3689 -44.6133 77.294 22.0503C139.744 102.122 113.94 163.6 222.164 100.288C333.623 34.5101 386.499 131.28 386.499 131.28M-310.147 2.19034C-166.164 4.21428 -174.406 75.6215 -105.743 133.557C3.24221 225.52 33.0405 -42.6526 85.4094 23.4417C147.605 101.996 117.807 173.783 225.461 109.143C337.046 42.1632 385.928 133.747 385.928 133.747M-310.401 14.2075C-163.058 21.6075 -166.925 68.9804 -99.5936 127.801C10.66 224.128 40.7118 -40.6919 93.5245 24.8964C155.467 101.869 121.548 183.776 228.695 118.124C340.28 49.753 385.231 136.34 385.231 136.34M-310.591 26.1614C-159.951 38.9376 -159.38 62.3394 -93.3803 122.046C18.0145 222.8 48.3834 -38.668 101.576 26.3512C163.329 101.743 125.225 193.769 231.928 127.042C343.513 57.2163 384.597 138.87 384.597 138.87M-310.844 38.1786C-156.908 56.3308 -151.962 55.8248 -87.2305 116.353C25.2422 221.598 55.9915 -36.7073 109.628 27.8059C171.064 101.68 128.902 203.826 235.162 135.96C346.747 64.7428 383.963 141.4 383.963 141.4M-311.035 50.1325C-153.801 73.6608 -144.481 49.247 -81.0172 110.535C32.5333 220.333 63.663 -34.7466 117.744 29.1973C178.989 101.553 132.643 213.819 238.459 144.878C350.044 72.2061 383.329 143.93 383.329 143.93M-311.225 62.1496C-150.631 91.1173 -137 42.7324 -74.804 104.779C39.7608 219.132 71.3343 -32.7859 125.922 30.652C186.85 101.427 136.447 223.749 241.755 153.796C353.277 79.6694 382.758 146.459 382.758 146.459M-311.478 74.1035C-147.588 108.447 -129.645 36.2179 -68.6541 99.0233C46.8618 217.993 78.9425 -30.762 133.974 32.1067C194.585 101.364 139.997 233.552 244.989 162.714C356.384 86.9429 382.124 148.989 382.124 148.989M-311.669 86.1207C-144.481 125.841 -122.291 29.7666 -62.5041 93.2677C53.8994 216.981 86.5507 -28.738 142.026 33.5614C202.384 101.3 143.675 243.609 248.159 171.632C359.554 94.4062 381.364 151.583 381.364 151.583M-311.922 98.0746C-141.438 143.171 -115 23.252 -56.3544 87.5122C60.8099 215.906 94.0952 -26.7774 150.078 34.9529C210.118 101.174 147.288 253.539 251.392 180.55C362.787 101.933 380.729 154.113 380.729 154.113M-312.112 110.092C-138.268 160.564 -107.645 16.8007 -50.1411 81.7566C67.784 214.957 101.767 -24.7534 158.193 36.4076C217.917 101.111 151.029 263.595 254.689 189.468C366.084 109.396 380.159 156.642 380.159 156.642M-312.303 122.109C-135.161 178.02 -100.291 10.4126 -43.9279 76.0642C74.6312 214.072 109.375 -22.6662 166.308 37.9256C225.715 101.174 154.769 273.652 257.922 198.449C369.317 116.923 379.525 159.236 379.525 159.236M-312.556 134.063C-132.118 195.35 -93.0634 3.89803 -37.7781 70.2454C81.3516 213.123 116.919 -20.7055 174.36 39.317C233.45 101.047 158.447 283.581 261.156 207.367C372.487 124.449 378.827 161.766 378.827 161.766M-312.746 146.08C-129.011 212.68 -85.8357 -2.49003 -31.5648 64.4898C88.0721 212.238 124.464 -18.5551 182.539 40.7717C241.248 101.111 162.251 293.638 264.516 216.285C375.847 131.912 378.32 164.295 378.32 164.295M-313 158.034C-125.905 230.074 -78.6714 -8.94134 -25.4149 58.7342C94.6659 211.415 132.136 -16.5944 190.591 42.1632C249.046 100.921 165.928 303.631 267.686 225.203C379.018 139.439 377.623 166.825 377.623 166.825" stroke="white" stroke-width="0.75" stroke-miterlimit="10"/>
</g>
<defs>
<clipPath id="clip0_6407_309">
<rect width="256" height="144" fill="white"/>
</clipPath>
</defs>
</svg>
